<?xml version="1.0" encoding="utf-8"?>
<!-- Generator: Adobe Illustrator 16.0.0, SVG Export Plug-In . SVG Version: 6.00 Build 0)  -->
<!DOCTYPE svg PUBLIC "-//W3C//DTD SVG 1.1//EN" "http://www.w3.org/Graphics/SVG/1.1/DTD/svg11.dtd">
<svg version="1.1" id="Layer_1" xmlns="http://www.w3.org/2000/svg" xmlns:xlink="http://www.w3.org/1999/xlink" x="0px" y="0px"
	 width="960px" height="560px" viewBox="0 0 960 560" enable-background="new 0 0 960 560" xml:space="preserve">
<g>
	<path fill="#CDA192" stroke="#231F20" stroke-miterlimit="10" d="M802.028-390.865c0-74.104-60.073-134.177-134.177-134.177
		s-134.176,60.073-134.176,134.177c0,0,21.186,176.549,0,209.841c-21.188,33.291,88.777,102.903,88.777,0
		c0,0,25.539,120.049,44.043-1.011"/>
	<path fill="#CDA192" stroke="#231F20" stroke-miterlimit="10" d="M802.028-390.865c0,0-23.938,176.549-2.753,209.841
		c21.188,33.291-88.777,102.903-88.777,0c0,0-25.537,120.049-44.043-1.011"/>
</g>
<path d="M799.619-371.486c-40.605,0-83.785,37.877-83.785-2.728c0-40.605,32.916-73.522,73.521-73.522
	c0,0,11.868,26.903,12.673,55.903L799.619-371.486z"/>
<g>
	<path fill="#CDA192" stroke="#231F20" stroke-miterlimit="10" d="M429.037-390.865c0-74.104-60.072-134.177-134.176-134.177
		s-134.176,60.073-134.176,134.177c0,0,21.186,176.549,0,209.841c-21.188,33.291,88.646,69.347,88.777,0
		c0,0,25.373,85.287,44.043-1.011"/>
	<path fill="#CDA192" stroke="#231F20" stroke-miterlimit="10" d="M429.037-390.865c0,0-23.938,176.549-2.752,209.841
		c21.188,33.291-81.314,69.347-88.777,0c0,0-24.418,86.084-44.043-1.011"/>
</g>
<path d="M429.023-392.5c-0.014-1.635-6.656,61.535-6.656,61.535c-18.813,0-25.266-8.535-39.939-19.937
	c-18.465-14.345-39.584,43.038-39.584-23.311c0-40.605,32.916-73.522,73.521-73.522C416.365-447.736,429.797-418.251,429.023-392.5z
	"/>
<g>
	<g>
		<path fill="#CDA192" stroke="#231F20" stroke-miterlimit="10" d="M1143.972-391.865c0-74.104,60.073-134.177,134.177-134.177
			s134.176,60.073,134.176,134.177c0,0-21.186,176.549,0,209.841c21.188,33.291-88.777,102.903-88.777,0
			c0,0-25.539,120.049-44.043-1.011"/>
		<path fill="#CDA192" stroke="#231F20" stroke-miterlimit="10" d="M1143.972-391.865c0,0,23.938,176.549,2.753,209.841
			c-21.188,33.291,88.777,102.903,88.777,0c0,0,25.537,120.049,44.043-1.011"/>
	</g>
	<path d="M1353.166-394.213c0,40.604-32.916,4.582-73.521,4.582c-40.606,0-73.522,36.022-73.522-4.582
		c0-40.605,32.916-73.523,73.522-73.523C1320.25-467.736,1353.166-434.818,1353.166-394.213z"/>
</g>
<g>
	<path fill="#CDA192" stroke="#231F20" stroke-miterlimit="10" d="M1516.963-391.865c0-74.104,60.072-134.177,134.176-134.177
		s134.176,60.073,134.176,134.177c0,0-21.186,176.549,0,209.841c21.188,33.291-88.646,69.347-88.777,0
		c0,0-25.373,85.287-44.043-1.011"/>
	<path fill="#CDA192" stroke="#231F20" stroke-miterlimit="10" d="M1516.963-391.865c0,0,23.938,176.549,2.752,209.841
		c-21.188,33.291,81.314,69.347,88.777,0c0,0,24.418,86.084,44.043-1.011"/>
</g>
<path d="M1726.156-394.213c0,66.349-21.119,8.965-39.584,23.311c-14.674,11.401-15.125,21.52-33.938,21.52
	c-18.781,0-21.074-8.016-34.072-21.253c-15.1-15.381-39.449,36.794-39.449-23.577c0-40.605,32.916-73.523,73.521-73.523
	S1726.156-434.818,1726.156-394.213z"/>
<g>
	<path fill="#CDA192" stroke="#231F20" stroke-miterlimit="10" d="M208.972,229.135c0-74.104,60.073-134.177,134.177-134.177
		c74.104,0,134.176,60.073,134.176,134.177c0,0-21.186,176.549,0,209.841c21.187,33.291-88.778,102.903-88.778,0
		c0,0-25.539,120.049-44.043-1.011"/>
	<path fill="#CDA192" stroke="#231F20" stroke-miterlimit="10" d="M208.972,229.135c0,0,23.938,176.549,2.753,209.841
		c-21.187,33.291,88.777,102.903,88.777,0c0,0,25.538,120.049,44.043-1.011"/>
</g>
<path d="M211.38,248.514c40.606,0,83.786,37.878,83.786-2.727c0-40.605-32.917-73.523-73.522-73.523
	c0,0-11.868,26.903-12.672,55.903L211.38,248.514z"/>
<g>
	<path fill="#CDA192" stroke="#231F20" stroke-miterlimit="10" d="M581.963,229.135c0-74.104,60.072-134.177,134.176-134.177
		s134.176,60.073,134.176,134.177c0,0-21.186,176.549,0,209.841c21.188,33.291-88.646,69.347-88.777,0
		c0,0-25.373,85.287-44.043-1.011"/>
	<path fill="#CDA192" stroke="#231F20" stroke-miterlimit="10" d="M581.963,229.135c0,0,23.938,176.549,2.752,209.841
		c-21.188,33.291,81.314,69.347,88.777,0c0,0,24.418,86.084,44.043-1.011"/>
</g>
<path d="M581.977,227.5c0.014-1.636,6.656,61.534,6.656,61.534c18.813,0,25.266-8.535,39.939-19.937
	c18.465-14.346,39.584,43.038,39.584-23.311c0-40.605-32.916-73.523-73.521-73.523C594.635,172.264,581.203,201.749,581.977,227.5z"
	/>
</svg>
