<?xml version="1.0" encoding="utf-8"?>
<!-- Generator: Adobe Illustrator 16.0.0, SVG Export Plug-In . SVG Version: 6.00 Build 0)  -->
<!DOCTYPE svg PUBLIC "-//W3C//DTD SVG 1.1//EN" "http://www.w3.org/Graphics/SVG/1.1/DTD/svg11.dtd">
<svg version="1.1" id="Layer_1" xmlns="http://www.w3.org/2000/svg" xmlns:xlink="http://www.w3.org/1999/xlink" x="0px" y="0px"
	 width="960px" height="560px" viewBox="0 0 960 560" enable-background="new 0 0 960 560" xml:space="preserve">
<g>
	<path fill="#333333" stroke="#000000" stroke-miterlimit="10" d="M-886.028,215.135c0-74.104,60.073-134.177,134.177-134.177
		s134.176,60.073,134.176,134.177c0,0-21.186,176.549,0,209.841c21.188,33.291-88.777,102.903-88.777,0
		c0,0-25.539,120.049-44.043-1.011"/>
	<path fill="#333333" stroke="#000000" stroke-miterlimit="10" d="M-886.028,215.135c0,0,23.938,176.549,2.753,209.841
		c-21.188,33.291,88.777,102.903,88.777,0c0,0,25.537,120.049,44.043-1.011"/>
</g>
<path d="M-676.834,212.787c0,40.605-32.916,4.583-73.521,4.583c-40.606,0-73.522,36.022-73.522-4.583
	c0-40.605,32.916-73.522,73.522-73.522C-709.75,139.264-676.834,172.181-676.834,212.787z"/>
<g>
	<path fill="#333333" stroke="#000000" stroke-miterlimit="10" d="M-513.037,215.135c0-74.104,60.072-134.177,134.176-134.177
		s134.176,60.073,134.176,134.177c0,0-21.186,176.549,0,209.841c21.188,33.291-88.646,69.347-88.777,0
		c0,0-25.373,85.287-44.043-1.011"/>
	<path fill="#333333" stroke="#000000" stroke-miterlimit="10" d="M-513.037,215.135c0,0,23.938,176.549,2.752,209.841
		c-21.188,33.291,81.314,69.347,88.777,0c0,0,24.418,86.084,44.043-1.011"/>
</g>
<path d="M-303.844,212.787c0,66.349-21.119,8.966-39.584,23.312c-14.674,11.401-15.125,21.519-33.938,21.519
	c-18.781,0-21.074-8.015-34.072-21.253c-15.1-15.381-39.449,36.794-39.449-23.578c0-40.605,32.916-73.522,73.521-73.522
	S-303.844,172.181-303.844,212.787z"/>
<g>
	<path fill="#333333" stroke="#000000" stroke-miterlimit="10" d="M802.028,208.135c0-74.104-60.073-134.177-134.177-134.177
		s-134.176,60.073-134.176,134.177c0,0,21.186,176.549,0,209.841c-21.188,33.291,88.777,102.903,88.777,0
		c0,0,25.539,120.049,44.043-1.011"/>
	<path fill="#333333" stroke="#000000" stroke-miterlimit="10" d="M802.028,208.135c0,0-23.938,176.549-2.753,209.841
		c21.188,33.291-88.777,102.903-88.777,0c0,0-25.537,120.049-44.043-1.011"/>
</g>
<path d="M799.619,227.514c-40.605,0-83.785,37.878-83.785-2.727c0-40.605,32.916-73.523,73.521-73.523
	c0,0,11.868,26.903,12.673,55.903L799.619,227.514z"/>
<g>
	<path fill="#333333" stroke="#000000" stroke-miterlimit="10" d="M429.037,208.135c0-74.104-60.072-134.177-134.176-134.177
		s-134.176,60.073-134.176,134.177c0,0,21.186,176.549,0,209.841c-21.188,33.291,88.646,69.347,88.777,0
		c0,0,25.373,85.287,44.043-1.011"/>
	<path fill="#333333" stroke="#000000" stroke-miterlimit="10" d="M429.037,208.135c0,0-23.938,176.549-2.752,209.841
		c21.188,33.291-81.314,69.347-88.777,0c0,0-24.418,86.084-44.043-1.011"/>
</g>
<path d="M429.023,206.5c-0.014-1.636-6.656,61.534-6.656,61.534c-18.813,0-25.266-8.535-39.939-19.937
	c-18.465-14.346-39.584,43.038-39.584-23.311c0-40.605,32.916-73.523,73.521-73.523C416.365,151.264,429.797,180.749,429.023,206.5z
	"/>
<g>
	<path fill="#333333" stroke="#000000" stroke-miterlimit="10" d="M-884.028,863.135c0-74.104,60.073-134.177,134.177-134.177
		c74.104,0,134.176,60.073,134.176,134.177c0,0-21.186,176.549,0,209.841c21.188,33.291-88.777,102.903-88.777,0
		c0,0-25.539,120.049-44.043-1.011"/>
	<path fill="#333333" stroke="#000000" stroke-miterlimit="10" d="M-884.028,863.135c0,0,23.938,176.549,2.753,209.841
		c-21.187,33.291,88.777,102.903,88.777,0c0,0,25.537,120.049,44.043-1.011"/>
</g>
<path d="M-881.62,882.514c40.606,0,83.786,37.878,83.786-2.727c0-40.605-32.916-73.523-73.522-73.523
	c0,0-11.868,26.903-12.672,55.903L-881.62,882.514z"/>
<g>
	<path fill="#333333" stroke="#000000" stroke-miterlimit="10" d="M-511.037,863.135c0-74.104,60.072-134.177,134.176-134.177
		s134.176,60.073,134.176,134.177c0,0-21.186,176.549,0,209.841c21.188,33.291-88.646,69.347-88.777,0
		c0,0-25.373,85.287-44.043-1.011"/>
	<path fill="#333333" stroke="#000000" stroke-miterlimit="10" d="M-511.037,863.135c0,0,23.938,176.549,2.752,209.841
		c-21.188,33.291,81.314,69.347,88.777,0c0,0,24.418,86.084,44.043-1.011"/>
</g>
<path d="M-511.023,861.5c0.014-1.636,6.656,61.534,6.656,61.534c18.813,0,25.266-8.535,39.939-19.937
	c18.465-14.346,39.584,43.038,39.584-23.311c0-40.605-32.916-73.523-73.521-73.523C-498.365,806.264-511.797,835.749-511.023,861.5z
	"/>
</svg>
