<?xml version="1.0" encoding="utf-8"?>
<!-- Generator: Adobe Illustrator 16.0.0, SVG Export Plug-In . SVG Version: 6.00 Build 0)  -->
<!DOCTYPE svg PUBLIC "-//W3C//DTD SVG 1.1//EN" "http://www.w3.org/Graphics/SVG/1.1/DTD/svg11.dtd">
<svg version="1.1" id="Layer_1" xmlns="http://www.w3.org/2000/svg" xmlns:xlink="http://www.w3.org/1999/xlink" x="0px" y="0px"
	 width="960px" height="560px" viewBox="0 0 960 560" enable-background="new 0 0 960 560" xml:space="preserve">
<g>
	<path fill="#68524E" stroke="#231F20" stroke-miterlimit="10" d="M157.972-378.865c0-74.104,60.073-134.177,134.177-134.177
		s134.176,60.073,134.176,134.177c0,0-21.186,176.549,0,209.841c21.188,33.291-88.777,102.903-88.777,0
		c0,0-25.539,120.049-44.043-1.011"/>
	<path fill="#68524E" stroke="#231F20" stroke-miterlimit="10" d="M157.972-378.865c0,0,23.938,176.549,2.753,209.841
		c-21.188,33.291,88.777,102.903,88.777,0c0,0,25.537,120.049,44.043-1.011"/>
</g>
<path d="M160.381-359.486c40.605,0,83.785,37.877,83.785-2.728c0-40.605-32.916-73.522-73.521-73.522
	c0,0-11.868,26.903-12.673,55.903L160.381-359.486z"/>
<g>
	<path fill="#68524E" stroke="#231F20" stroke-miterlimit="10" d="M530.963-378.865c0-74.104,60.072-134.177,134.176-134.177
		s134.176,60.073,134.176,134.177c0,0-21.186,176.549,0,209.841c21.188,33.291-88.646,69.347-88.777,0
		c0,0-25.373,85.287-44.043-1.011"/>
	<path fill="#68524E" stroke="#231F20" stroke-miterlimit="10" d="M530.963-378.865c0,0,23.938,176.549,2.752,209.841
		c-21.188,33.291,81.314,69.347,88.777,0c0,0,24.418,86.084,44.043-1.011"/>
</g>
<path d="M530.977-380.5c0.014-1.635,6.656,61.535,6.656,61.535c18.813,0,25.266-8.535,39.939-19.936
	c18.465-14.346,39.584,43.038,39.584-23.312c0-40.605-32.916-73.522-73.521-73.522C543.635-435.736,530.203-406.251,530.977-380.5z"
	/>
<g>
	<path fill="#68524E" stroke="#231F20" stroke-miterlimit="10" d="M1131.972-391.865c0-74.104,60.073-134.177,134.177-134.177
		s134.176,60.073,134.176,134.177c0,0-21.186,176.549,0,209.841c21.188,33.291-88.777,102.903-88.777,0
		c0,0-25.539,120.049-44.043-1.011"/>
	<path fill="#68524E" stroke="#231F20" stroke-miterlimit="10" d="M1131.972-391.865c0,0,23.938,176.549,2.753,209.841
		c-21.188,33.291,88.777,102.903,88.777,0c0,0,25.537,120.049,44.043-1.011"/>
</g>
<path d="M1341.166-394.213c0,40.604-32.916,4.582-73.521,4.582c-40.606,0-73.522,36.022-73.522-4.582
	c0-40.605,32.916-73.523,73.522-73.523C1308.25-467.736,1341.166-434.818,1341.166-394.213z"/>
<path fill="#68524E" stroke="#231F20" stroke-miterlimit="10" d="M1504.963-391.865c0-74.104,60.072-134.177,134.176-134.177
	s134.176,60.073,134.176,134.177c0,0-21.186,176.549,0,209.841c21.188,33.291-88.646,69.347-88.777,0
	c0,0-25.373,85.287-44.043-1.011"/>
<path fill="#68524E" stroke="#231F20" stroke-miterlimit="10" d="M1504.963-391.865c0,0,23.938,176.549,2.752,209.841
	c-21.188,33.291,81.314,69.347,88.777,0c0,0,24.418,86.084,44.043-1.011"/>
<path d="M1714.156-394.213c0,66.349-21.119,8.965-39.584,23.311c-14.674,11.401-15.125,21.52-33.938,21.52
	c-18.781,0-21.074-8.016-34.072-21.253c-15.1-15.381-39.449,36.794-39.449-23.577c0-40.605,32.916-73.523,73.521-73.523
	S1714.156-434.818,1714.156-394.213z"/>
<g>
	<path fill="#68524E" stroke="#231F20" stroke-miterlimit="10" d="M802.028,232.135c0-74.104-60.073-134.177-134.177-134.177
		s-134.176,60.073-134.176,134.177c0,0,21.186,176.549,0,209.841c-21.188,33.291,88.777,102.903,88.777,0
		c0,0,25.539,120.049,44.043-1.011"/>
	<path fill="#68524E" stroke="#231F20" stroke-miterlimit="10" d="M802.028,232.135c0,0-23.938,176.549-2.753,209.841
		c21.188,33.291-88.777,102.903-88.777,0c0,0-25.537,120.049-44.043-1.011"/>
</g>
<path d="M799.619,251.514c-40.605,0-83.785,37.878-83.785-2.727c0-40.605,32.916-73.523,73.521-73.523
	c0,0,11.868,26.903,12.673,55.903L799.619,251.514z"/>
<g>
	<path fill="#68524E" stroke="#231F20" stroke-miterlimit="10" d="M429.037,232.135c0-74.104-60.072-134.177-134.176-134.177
		s-134.176,60.073-134.176,134.177c0,0,21.186,176.549,0,209.841c-21.188,33.291,88.646,69.347,88.777,0
		c0,0,25.373,85.287,44.043-1.011"/>
	<path fill="#68524E" stroke="#231F20" stroke-miterlimit="10" d="M429.037,232.135c0,0-23.938,176.549-2.752,209.841
		c21.188,33.291-81.314,69.347-88.777,0c0,0-24.418,86.084-44.043-1.011"/>
</g>
<path d="M429.023,230.5c-0.014-1.636-6.656,61.534-6.656,61.534c-18.813,0-25.266-8.535-39.939-19.937
	c-18.465-14.346-39.584,43.038-39.584-23.311c0-40.605,32.916-73.523,73.521-73.523C416.365,175.264,429.797,204.749,429.023,230.5z
	"/>
</svg>
