<?xml version="1.0" encoding="utf-8"?>
<!-- Generator: Adobe Illustrator 16.0.0, SVG Export Plug-In . SVG Version: 6.00 Build 0)  -->
<!DOCTYPE svg PUBLIC "-//W3C//DTD SVG 1.1//EN" "http://www.w3.org/Graphics/SVG/1.1/DTD/svg11.dtd">
<svg version="1.1" id="Layer_1" xmlns="http://www.w3.org/2000/svg" xmlns:xlink="http://www.w3.org/1999/xlink" x="0px" y="0px"
	 width="960px" height="560px" viewBox="0 0 960 560" enable-background="new 0 0 960 560" xml:space="preserve">
<g>
	<path fill="#F8B071" stroke="#000000" stroke-miterlimit="10" d="M312.819-261.438c-39.195,9.938-68.192,45.451-68.192,87.735
		c0,49.985,40.521,90.506,90.506,90.506s90.506-40.521,90.506-90.506c0-41.935-28.52-77.208-67.221-87.483l-23.285,88.869
		L312.819-261.438z"/>
	<circle cx="376.067" cy="-247.869" r="5.086"/>
	<path fill="#C1272D" d="M358.418-261.186c0,0,22.584,13.855-7.676,29.296L358.418-261.186z"/>
	<path fill="#C1272D" d="M312.819-261.438c0,0-16.497,7.945,5.75,22.967L312.819-261.438z"/>
	<g>
		<circle cx="395.626" cy="-208.145" r="7.811"/>
		<path d="M414.981-203.77c0-17.236-12.005-32.668-22.333-32.668c-10.329,0-18.667,12.969-18.667,30.204s15.292,38.796,25.62,38.796
			S414.981-186.535,414.981-203.77z M381.648-206.037c0-11.07,5.355-19.4,11.988-19.4c6.634,0,14.345,9.912,14.345,20.982
			c0,11.069-3.245,23.336-9.878,23.336C391.469-181.119,381.648-194.968,381.648-206.037z"/>
		<path fill="none" stroke="#000000" stroke-width="6" stroke-miterlimit="10" d="M400-171v28.301c0,0,5.693-0.406,6.033,5.25
			c0.495,8.25-10.27,8.975-10.27,8.975"/>
	</g>
</g>
<g>
	<path fill="#F8B071" stroke="#000000" stroke-miterlimit="10" d="M570.346-254.357c-27.85,15.431-46.703,45.121-46.703,79.215
		c0,49.981,40.519,90.5,90.5,90.5c49.982,0,90.5-40.519,90.5-90.5c0-33.672-18.39-63.049-45.674-78.636L614.143-169.5
		L570.346-254.357z"/>
	<circle cx="672.894" cy="-236.063" r="5.086"/>
	<path fill="#C1272D" d="M659.279-253.6c0,0,18.738,19.03-14.324,26.832L659.279-253.6z"/>
	<path fill="#C1272D" d="M570.063-254.352c0,0-14.289,11.451,10.766,21.086L570.063-254.352z"/>
	<g>
		<circle cx="680.947" cy="-195.488" r="7.811"/>
		<path d="M698.901-187.037c3.722-16.829-4.669-34.489-14.753-36.719c-10.086-2.23-21.027,8.633-24.748,25.461
			c-3.721,16.829,6.555,41.183,16.64,43.413C686.125-152.652,695.181-170.209,698.901-187.037z M666.844-196.447
			c2.391-10.81,9.418-17.787,15.895-16.354c6.478,1.432,11.867,12.775,9.477,23.584s-8.207,22.085-14.684,20.653
			C671.054-169.997,664.454-185.64,666.844-196.447z"/>
		<path fill="none" stroke="#000000" stroke-width="6" stroke-miterlimit="10" d="M677.116-158.753l-6.208,28.072
			c0,0,5.737,0.853,4.848,6.448c-1.298,8.162-11.961,6.316-11.961,6.316"/>
	</g>
</g>
<g>
	<path fill="#F8B071" stroke="#000000" stroke-miterlimit="10" d="M636.45-544.438c39.195,9.938,68.192,45.451,68.192,87.735
		c0,49.985-40.521,90.506-90.506,90.506s-90.506-40.521-90.506-90.506c0-41.935,28.52-77.208,67.221-87.483l23.285,88.869
		L636.45-544.438z"/>
	<circle cx="573.202" cy="-530.869" r="5.086"/>
	<path fill="#C1272D" d="M590.852-544.186c0,0-22.584,13.855,7.676,29.296L590.852-544.186z"/>
	<path fill="#C1272D" d="M636.45-544.438c0,0,16.497,7.945-5.75,22.967L636.45-544.438z"/>
	<g>
		<circle cx="553.644" cy="-491.145" r="7.811"/>
		<path d="M549.668-450.438c10.328,0,25.62-21.561,25.62-38.796s-8.338-30.204-18.667-30.204c-10.328,0-22.333,15.432-22.333,32.668
			C534.288-469.535,539.34-450.438,549.668-450.438z M551.166-464.119c-6.633,0-9.878-12.267-9.878-23.336
			c0-11.07,7.711-20.982,14.345-20.982c6.633,0,11.988,8.33,11.988,19.4C567.621-477.968,557.801-464.119,551.166-464.119z"/>
		<path fill="none" stroke="#000000" stroke-width="6" stroke-miterlimit="10" d="M549-454v28.301c0,0-5.559-0.406-5.898,5.25
			c-0.495,8.25,10.202,8.975,10.202,8.975"/>
	</g>
</g>
<g>
	<path fill="#F8B071" stroke="#000000" stroke-miterlimit="10" d="M378.924-536.357c27.85,15.431,46.703,45.121,46.703,79.215
		c0,49.981-40.519,90.5-90.5,90.5c-49.982,0-90.5-40.519-90.5-90.5c0-33.672,18.39-63.049,45.674-78.636l44.826,84.278
		L378.924-536.357z"/>
	<circle cx="276.376" cy="-518.063" r="5.086"/>
	<path fill="#C1272D" d="M289.99-535.6c0,0-18.738,19.03,14.324,26.832L289.99-535.6z"/>
	<path fill="#C1272D" d="M379.207-536.352c0,0,14.289,11.451-10.766,21.086L379.207-536.352z"/>
	<g>
		<circle cx="268.323" cy="-477.488" r="7.811"/>
		<path d="M273.229-436.882c10.085-2.23,20.36-26.584,16.64-43.413c-3.721-16.828-14.662-27.691-24.748-25.461
			c-10.084,2.229-18.475,19.89-14.753,36.719C254.089-452.209,263.145-434.652,273.229-436.882z M271.738-450.564
			c-6.477,1.432-12.293-9.845-14.684-20.653s2.999-22.152,9.477-23.584c6.477-1.433,13.504,5.545,15.895,16.354
			C284.815-467.64,278.216-451.997,271.738-450.564z"/>
		<path fill="none" stroke="#000000" stroke-width="6" stroke-miterlimit="10" d="M272.153-440.753l6.208,28.072
			c0,0-5.737,0.853-4.848,6.448c1.298,8.162,11.961,6.316,11.961,6.316"/>
	</g>
</g>
<g>
	<path fill="#F8B071" stroke="#000000" stroke-miterlimit="10" d="M1657.45-370.196c39.195-9.938,68.192-45.451,68.192-87.735
		c0-49.985-40.521-90.506-90.506-90.506s-90.506,40.521-90.506,90.506c0,41.935,28.52,77.208,67.221,87.483l23.285-88.869
		L1657.45-370.196z"/>
	<circle cx="1594.202" cy="-383.765" r="5.086"/>
	<path fill="#C1272D" d="M1611.852-370.448c0,0-22.584-13.855,7.676-29.296L1611.852-370.448z"/>
	<path fill="#C1272D" d="M1657.45-370.196c0,0,16.497-7.945-5.75-22.967L1657.45-370.196z"/>
	<g>
		<circle cx="1574.644" cy="-423.489" r="7.811"/>
		<path d="M1555.288-427.864c0,17.236,12.005,32.668,22.333,32.668c10.329,0,18.667-12.969,18.667-30.204
			s-15.292-38.796-25.62-38.796S1555.288-445.099,1555.288-427.864z M1588.621-425.597c0,11.07-5.355,19.4-11.988,19.4
			c-6.634,0-14.345-9.912-14.345-20.982c0-11.069,3.245-23.336,9.878-23.336C1578.801-450.515,1588.621-436.666,1588.621-425.597z"
			/>
		<path fill="none" stroke="#000000" stroke-width="6" stroke-miterlimit="10" d="M1570-461v-27.935c0,0-5.559,0.406-5.898-5.25
			c-0.495-8.25,10.202-9.157,10.202-9.157"/>
	</g>
</g>
<g>
	<path fill="#F8B071" stroke="#000000" stroke-miterlimit="10" d="M1399.924-378.643c27.85-15.431,46.703-45.121,46.703-79.215
		c0-49.981-40.519-90.5-90.5-90.5c-49.982,0-90.5,40.519-90.5,90.5c0,33.672,18.39,63.049,45.674,78.636l44.826-84.278
		L1399.924-378.643z"/>
	<circle cx="1297.376" cy="-396.938" r="5.086"/>
	<path fill="#C1272D" d="M1310.99-379.4c0,0-18.738-19.03,14.324-26.832L1310.99-379.4z"/>
	<path fill="#C1272D" d="M1400.207-378.648c0,0,14.289-11.451-10.766-21.086L1400.207-378.648z"/>
	<g>
		<circle cx="1289.323" cy="-437.512" r="7.811"/>
		<path d="M1271.368-445.963c-3.722,16.829,4.669,34.489,14.753,36.719c10.086,2.23,21.027-8.633,24.748-25.461
			c3.721-16.829-6.555-41.183-16.64-43.413C1284.145-480.348,1275.089-462.791,1271.368-445.963z M1303.426-436.553
			c-2.391,10.81-9.418,17.787-15.895,16.354c-6.478-1.432-11.867-12.775-9.477-23.584s8.207-22.085,14.684-20.653
			C1299.216-463.003,1305.815-447.36,1303.426-436.553z"/>
		<path fill="none" stroke="#000000" stroke-width="6" stroke-miterlimit="10" d="M1293.153-474.247l6.208-28.072
			c0,0-5.737-0.853-4.848-6.448c1.298-8.162,11.961-6.316,11.961-6.316"/>
	</g>
</g>
<g>
	<path fill="#F8B071" stroke="#000000" stroke-miterlimit="10" d="M1333.819-88.196c-39.195-9.938-68.192-45.451-68.192-87.735
		c0-49.985,40.521-90.506,90.506-90.506s90.506,40.521,90.506,90.506c0,41.935-28.52,77.208-67.221,87.483l-23.285-88.869
		L1333.819-88.196z"/>
	<circle cx="1397.067" cy="-101.765" r="5.086"/>
	<path fill="#C1272D" d="M1379.418-88.448c0,0,22.584-13.855-7.676-29.296L1379.418-88.448z"/>
	<path fill="#C1272D" d="M1333.819-88.196c0,0-16.497-7.945,5.75-22.967L1333.819-88.196z"/>
	<g>
		<circle cx="1416.626" cy="-141.489" r="7.811"/>
		<path d="M1420.602-182.196c-10.328,0-25.62,21.561-25.62,38.796s8.338,30.204,18.667,30.204c10.328,0,22.333-15.432,22.333-32.668
			C1435.981-163.099,1430.93-182.196,1420.602-182.196z M1419.104-168.515c6.633,0,9.878,12.267,9.878,23.336
			c0,11.07-7.711,20.982-14.345,20.982c-6.633,0-11.988-8.33-11.988-19.4C1402.648-154.666,1412.469-168.515,1419.104-168.515z"/>
		<path fill="none" stroke="#000000" stroke-width="6" stroke-miterlimit="10" d="M1421-179v-27.935c0,0,5.693,0.406,6.033-5.25
			c0.495-8.25-10.27-9.157-10.27-9.157"/>
	</g>
</g>
<g>
	<path fill="#F8B071" stroke="#000000" stroke-miterlimit="10" d="M1591.346-96.643c-27.85-15.431-46.703-45.121-46.703-79.215
		c0-49.981,40.519-90.5,90.5-90.5c49.982,0,90.5,40.519,90.5,90.5c0,33.672-18.39,63.049-45.674,78.636l-44.826-84.278
		L1591.346-96.643z"/>
	<circle cx="1693.894" cy="-114.938" r="5.086"/>
	<path fill="#C1272D" d="M1680.279-97.4c0,0,18.738-19.03-14.324-26.832L1680.279-97.4z"/>
	<path fill="#C1272D" d="M1591.063-96.648c0,0-14.289-11.451,10.766-21.086L1591.063-96.648z"/>
	<g>
		<circle cx="1701.947" cy="-155.512" r="7.811"/>
		<path d="M1697.04-196.118c-10.085,2.23-20.36,26.584-16.64,43.413c3.721,16.828,14.662,27.691,24.748,25.461
			c10.084-2.229,18.475-19.89,14.753-36.719C1716.181-180.791,1707.125-198.348,1697.04-196.118z M1698.531-182.436
			c6.477-1.432,12.293,9.845,14.684,20.653s-2.999,22.152-9.477,23.584c-6.477,1.433-13.504-5.545-15.895-16.354
			C1685.454-165.36,1692.054-181.003,1698.531-182.436z"/>
		<path fill="none" stroke="#000000" stroke-width="6" stroke-miterlimit="10" d="M1698.116-192.247l-6.208-28.072
			c0,0,5.737-0.853,4.848-6.448c-1.298-8.162-11.961-6.316-11.961-6.316"/>
	</g>
</g>
<g>
	<path fill="#F8B071" stroke="#000000" stroke-miterlimit="10" d="M249.012,160.997c9.938,39.195,45.451,68.192,87.735,68.192
		c49.985,0,90.506-40.521,90.506-90.506s-40.521-90.506-90.506-90.506c-41.935,0-77.208,28.52-87.483,67.221l88.869,23.285
		L249.012,160.997z"/>
	<circle cx="262.58" cy="97.749" r="5.086"/>
	<path fill="#C1272D" d="M249.264,115.398c0,0,13.855-22.584,29.296,7.676L249.264,115.398z"/>
	<path fill="#C1272D" d="M249.012,160.997c0,0,7.945,16.497,22.967-5.75L249.012,160.997z"/>
	<g>
		<circle cx="302.305" cy="78.19" r="7.811"/>
		<path d="M306.68,58.835c-17.236,0-32.668,12.005-32.668,22.333c0,10.329,12.969,18.667,30.204,18.667s38.796-15.292,38.796-25.62
			S323.914,58.835,306.68,58.835z M304.412,92.168c-11.07,0-19.4-5.355-19.4-11.988c0-6.634,9.912-14.345,20.982-14.345
			c11.069,0,23.336,3.245,23.336,9.878C329.33,82.348,315.481,92.168,304.412,92.168z"/>
		<path fill="none" stroke="#000000" stroke-width="6" stroke-miterlimit="10" d="M339,74h28.75c0,0-0.406-5.785,5.25-6.125
			c8.25-0.495,8.75,10.315,8.75,10.315"/>
	</g>
</g>
<g>
	<path fill="#F8B071" stroke="#000000" stroke-miterlimit="10" d="M532.285,182.297C547.716,210.146,577.406,229,611.5,229
		c49.981,0,90.5-40.519,90.5-90.5c0-49.982-40.519-90.5-90.5-90.5c-33.672,0-63.049,18.39-78.636,45.674l84.278,44.826
		L532.285,182.297z"/>
	<circle cx="550.58" cy="79.749" r="5.086"/>
	<path fill="#C1272D" d="M533.043,93.363c0,0,19.03-18.738,26.832,14.324L533.043,93.363z"/>
	<path fill="#C1272D" d="M532.291,182.58c0,0,11.451,14.289,21.086-10.766L532.291,182.58z"/>
	<g>
		<circle cx="591.155" cy="71.696" r="7.811"/>
		<path d="M599.605,53.741c-16.829-3.722-34.489,4.669-36.719,14.753c-2.23,10.086,8.633,21.027,25.461,24.748
			c16.829,3.721,41.183-6.555,43.413-16.64C633.99,66.518,616.434,57.462,599.605,53.741z M590.195,85.799
			c-10.81-2.391-17.787-9.418-16.354-15.895c1.432-6.478,12.775-11.867,23.584-9.477s22.085,8.207,20.653,14.684
			C616.646,81.589,601.003,88.188,590.195,85.799z"/>
		<path fill="none" stroke="#000000" stroke-width="6" stroke-miterlimit="10" d="M627.89,75.526l28.072,6.208
			c0,0,0.853-5.737,6.448-4.848c8.162,1.298,6.316,11.961,6.316,11.961"/>
	</g>
</g>
<g>
	<path fill="#F8B071" stroke="#000000" stroke-miterlimit="10" d="M711,443.997c-9.938,39.195-45.451,68.192-87.735,68.192
		c-49.985,0-90.506-40.521-90.506-90.506s40.521-90.506,90.506-90.506c41.935,0,77.208,28.52,87.483,67.221l-88.869,23.285
		L711,443.997z"/>
	<circle cx="697.432" cy="380.749" r="5.086"/>
	<path fill="#C1272D" d="M710.748,398.398c0,0-13.855-22.584-29.296,7.676L710.748,398.398z"/>
	<path fill="#C1272D" d="M711,443.997c0,0-7.945,16.497-22.967-5.75L711,443.997z"/>
	<g>
		<circle cx="657.707" cy="361.19" r="7.811"/>
		<path d="M617,357.215c0,10.328,21.561,25.62,38.796,25.62S686,374.497,686,364.168c0-10.328-15.432-22.333-32.668-22.333
			C636.098,341.835,617,346.887,617,357.215z M630.682,358.713c0-6.633,12.267-9.878,23.336-9.878
			c11.07,0,20.982,7.711,20.982,14.345c0,6.633-8.33,11.988-19.4,11.988C644.53,375.168,630.682,365.348,630.682,358.713z"/>
		<path fill="none" stroke="#000000" stroke-width="6" stroke-miterlimit="10" d="M621,357h-28.738c0,0,0.406-5.785-5.25-6.125
			c-8.25-0.495-8.756,10.315-8.756,10.315"/>
	</g>
</g>
<g>
	<path fill="#F8B071" stroke="#000000" stroke-miterlimit="10" d="M418.727,465.297C403.296,493.146,373.605,512,339.512,512
		c-49.981,0-90.5-40.519-90.5-90.5c0-49.982,40.519-90.5,90.5-90.5c33.672,0,63.049,18.39,78.636,45.674L333.869,421.5
		L418.727,465.297z"/>
	<circle cx="400.432" cy="362.749" r="5.086"/>
	<path fill="#C1272D" d="M417.969,376.363c0,0-19.03-18.738-26.832,14.324L417.969,376.363z"/>
	<path fill="#C1272D" d="M418.721,465.58c0,0-11.451,14.289-21.086-10.766L418.721,465.58z"/>
	<g>
		<circle cx="359.857" cy="354.696" r="7.811"/>
		<path d="M319.251,359.603c2.23,10.085,26.584,20.36,43.413,16.64c16.828-3.721,27.691-14.662,25.461-24.748
			c-2.229-10.084-19.89-18.475-36.719-14.753C334.578,340.462,317.021,349.518,319.251,359.603z M332.934,358.111
			c-1.432-6.477,9.845-12.293,20.653-14.684s22.152,2.999,23.584,9.477c1.433,6.477-5.545,13.504-16.354,15.895
			C350.009,371.188,334.366,364.589,332.934,358.111z"/>
		<path fill="none" stroke="#000000" stroke-width="6" stroke-miterlimit="10" d="M323.122,358.526l-28.072,6.208
			c0,0-0.853-5.737-6.448-4.848c-8.162,1.298-6.316,11.961-6.316,11.961"/>
	</g>
</g>
</svg>
