<?xml version="1.0" encoding="utf-8"?>
<!-- Generator: Adobe Illustrator 16.0.0, SVG Export Plug-In . SVG Version: 6.00 Build 0)  -->
<!DOCTYPE svg PUBLIC "-//W3C//DTD SVG 1.1//EN" "http://www.w3.org/Graphics/SVG/1.1/DTD/svg11.dtd">
<svg version="1.1" id="Layer_1" xmlns="http://www.w3.org/2000/svg" xmlns:xlink="http://www.w3.org/1999/xlink" x="0px" y="0px"
	 width="960px" height="560px" viewBox="0 0 960 560" enable-background="new 0 0 960 560" xml:space="preserve">
<g>
	<path fill="#9B3800" stroke="#000000" stroke-miterlimit="10" d="M357.446,48.563c39.195,9.938,68.192,45.451,68.192,87.735
		c0,49.985-40.521,90.506-90.506,90.506s-90.506-40.521-90.506-90.506c0-41.935,28.52-77.208,67.221-87.483l23.285,88.869
		L357.446,48.563z"/>
	<line fill="#FFFFFF" stroke="#000000" stroke-miterlimit="10" x1="334.5" y1="137" x2="334.5" y2="226"/>
	<circle cx="274.307" cy="101.522" r="10.478"/>
	<circle cx="294.198" cy="62.131" r="5.086"/>
	<path d="M251.604,100.856c0,0,1.396,22.194,31.396,22.194v21.334c0,0-37.447-0.885-37.447-23.245
		C245.553,121.14,248.624,105.41,251.604,100.856z"/>
</g>
<g>
	<path fill="#9B3800" stroke="#000000" stroke-miterlimit="10" d="M657.939,52.643c27.85,15.431,46.703,45.121,46.703,79.215
		c0,49.981-40.519,90.5-90.5,90.5c-49.982,0-90.5-40.519-90.5-90.5c0-33.672,18.39-63.049,45.674-78.636l44.826,84.278
		L657.939,52.643z"/>
	<line fill="#FFFFFF" stroke="#000000" stroke-miterlimit="10" x1="614.5" y1="137" x2="614.5" y2="222"/>
	<circle cx="553.5" cy="97.329" r="10.478"/>
	<circle cx="562.392" cy="63.938" r="5.086"/>
	<path d="M531.201,96.663c0,0,1.799,22.194,31.799,22.194v21.334c0,0-37.648-0.885-37.648-23.245
		C525.352,116.946,528.221,101.217,531.201,96.663z"/>
</g>
<g>
	<path fill="#9B3800" stroke="#000000" stroke-miterlimit="10" d="M312.813,331.758c-39.195,9.938-68.192,45.451-68.192,87.735
		c0,49.985,40.521,90.506,90.506,90.506s90.506-40.521,90.506-90.506c0-41.935-28.52-77.208-67.221-87.483l-23.285,88.869
		L312.813,331.758z"/>
	<line fill="#FFFFFF" stroke="#000000" stroke-miterlimit="10" x1="335.5" y1="421" x2="335.5" y2="510"/>
	<circle cx="395.953" cy="384.718" r="10.478"/>
	<circle cx="376.062" cy="345.326" r="5.086"/>
	<path d="M418.525,384.052c0,0-1.525,22.194-31.525,22.194v21.334c0,0,37.512-0.885,37.512-23.245
		C424.512,404.335,421.506,388.605,418.525,384.052z"/>
</g>
<g>
	<path fill="#9B3800" stroke="#000000" stroke-miterlimit="10" d="M570.203,336c-27.85,15.431-46.703,45.121-46.703,79.215
		c0,49.981,40.519,90.5,90.5,90.5c49.982,0,90.5-40.519,90.5-90.5c0-33.672-18.39-63.049-45.674-78.636L614,420.857L570.203,336z"/>
	<line fill="#FFFFFF" stroke="#000000" stroke-miterlimit="10" x1="614.5" y1="421" x2="614.5" y2="506"/>
	<circle cx="674.643" cy="380.687" r="10.478"/>
	<circle cx="665.751" cy="347.295" r="5.086"/>
	<path d="M697.37,380.021c0,0-1.37,22.194-31.37,22.194v21.334c0,0,37.434-0.885,37.434-23.245
		C703.434,400.304,700.351,384.574,697.37,380.021z"/>
</g>
<g>
	<path fill="#9B3800" stroke="#000000" stroke-miterlimit="10" d="M345.446,817.805c39.195-9.938,68.192-45.451,68.192-87.735
		c0-49.985-40.521-90.506-90.506-90.506s-90.506,40.521-90.506,90.506c0,41.935,28.52,77.208,67.221,87.483l23.285-88.869
		L345.446,817.805z"/>
	<line fill="#FFFFFF" stroke="#000000" stroke-miterlimit="10" x1="322.5" y1="729" x2="322.5" y2="640"/>
	<circle cx="262.307" cy="764.845" r="10.478"/>
	<circle cx="282.198" cy="804.236" r="5.086"/>
	<path d="M239.604,765.511c0,0,1.396-22.194,31.396-22.194v-21.334c0,0-37.447,0.885-37.447,23.245
		C233.553,745.228,236.624,760.957,239.604,765.511z"/>
</g>
<g>
	<path fill="#9B3800" stroke="#000000" stroke-miterlimit="10" d="M645.939,813.357c27.85-15.431,46.703-45.121,46.703-79.215
		c0-49.981-40.519-90.5-90.5-90.5c-49.982,0-90.5,40.519-90.5,90.5c0,33.672,18.39,63.049,45.674,78.636l44.826-84.278
		L645.939,813.357z"/>
	<line fill="#FFFFFF" stroke="#000000" stroke-miterlimit="10" x1="602.5" y1="729" x2="602.5" y2="644"/>
	<circle cx="541.5" cy="768.671" r="10.478"/>
	<circle cx="550.392" cy="802.063" r="5.086"/>
	<path d="M519.201,769.337c0,0,1.799-22.194,31.799-22.194v-21.334c0,0-37.648,0.885-37.648,23.245
		C513.352,749.054,516.221,764.783,519.201,769.337z"/>
</g>
<g>
	<path fill="#9B3800" stroke="#000000" stroke-miterlimit="10" d="M300.813,1101c-39.195-9.938-68.192-45.451-68.192-87.735
		c0-49.985,40.521-90.506,90.506-90.506s90.506,40.521,90.506,90.506c0,41.935-28.52,77.208-67.221,87.483l-23.285-88.869
		L300.813,1101z"/>
	<line fill="#FFFFFF" stroke="#000000" stroke-miterlimit="10" x1="323.5" y1="1012" x2="323.5" y2="923"/>
	<circle cx="383.953" cy="1048.04" r="10.478"/>
	<circle cx="364.062" cy="1087.432" r="5.086"/>
	<path d="M406.525,1048.706c0,0-1.525-22.194-31.525-22.194v-21.334c0,0,37.512,0.885,37.512,23.245
		C412.512,1028.423,409.506,1044.152,406.525,1048.706z"/>
</g>
<g>
	<path fill="#9B3800" stroke="#000000" stroke-miterlimit="10" d="M558.203,1097c-27.85-15.431-46.703-45.121-46.703-79.215
		c0-49.981,40.519-90.5,90.5-90.5c49.982,0,90.5,40.519,90.5,90.5c0,33.672-18.39,63.049-45.674,78.636L602,1012.143L558.203,1097z"
		/>
	<line fill="#FFFFFF" stroke="#000000" stroke-miterlimit="10" x1="602.5" y1="1012" x2="602.5" y2="927"/>
	<circle cx="662.643" cy="1052.313" r="10.478"/>
	<circle cx="653.751" cy="1085.705" r="5.086"/>
	<path d="M685.37,1052.979c0,0-1.37-22.194-31.37-22.194v-21.334c0,0,37.434,0.885,37.434,23.245
		C691.434,1032.696,688.351,1048.426,685.37,1052.979z"/>
</g>
<g>
	<path fill="#9B3800" stroke="#000000" stroke-miterlimit="10" d="M1238.012,160.997c9.938,39.195,45.451,68.192,87.735,68.192
		c49.985,0,90.506-40.521,90.506-90.506s-40.521-90.506-90.506-90.506c-41.935,0-77.208,28.52-87.483,67.221l88.869,23.285
		L1238.012,160.997z"/>
	<line fill="#FFFFFF" stroke="#000000" stroke-miterlimit="10" x1="1327" y1="138.5" x2="1416" y2="138.5"/>
	<circle cx="1290.972" cy="77.857" r="10.478"/>
	<circle cx="1251.58" cy="97.749" r="5.086"/>
	<path d="M1290.306,55.38c0,0,22.194,1.62,22.194,31.62h21.334c0,0-0.885-37.559-23.245-37.559
		C1310.589,49.441,1294.859,52.399,1290.306,55.38z"/>
</g>
<g>
	<path fill="#9B3800" stroke="#000000" stroke-miterlimit="10" d="M1521.285,182.297c15.431,27.85,45.121,46.703,79.215,46.703
		c49.981,0,90.5-40.519,90.5-90.5c0-49.982-40.519-90.5-90.5-90.5c-33.672,0-63.049,18.39-78.636,45.674l84.278,44.826
		L1521.285,182.297z"/>
	<line fill="#FFFFFF" stroke="#000000" stroke-miterlimit="10" x1="1606" y1="138.5" x2="1691" y2="138.5"/>
	<circle cx="1565.972" cy="77.857" r="10.478"/>
	<circle cx="1532.58" cy="86.749" r="5.086"/>
	<path d="M1565.306,55.38c0,0,22.194,1.62,22.194,31.62h21.334c0,0-0.885-37.559-23.245-37.559
		C1585.589,49.441,1569.859,52.399,1565.306,55.38z"/>
</g>
<g>
	<path fill="#9B3800" stroke="#000000" stroke-miterlimit="10" d="M1416.254,443.997c-9.938,39.195-45.451,68.192-87.735,68.192
		c-49.985,0-90.506-40.521-90.506-90.506s40.521-90.506,90.506-90.506c41.935,0,77.208,28.52,87.483,67.221l-88.869,23.285
		L1416.254,443.997z"/>
	<line fill="#FFFFFF" stroke="#000000" stroke-miterlimit="10" x1="1327" y1="421.5" x2="1238" y2="421.5"/>
	<circle cx="1363.294" cy="360.857" r="10.478"/>
	<circle cx="1402.686" cy="380.749" r="5.086"/>
	<path d="M1363.96,338.38c0,0-22.194,1.62-22.194,31.62h-21.334c0,0,0.885-37.559,23.245-37.559
		C1343.677,332.441,1359.406,335.399,1363.96,338.38z"/>
</g>
<g>
	<path fill="#9B3800" stroke="#000000" stroke-miterlimit="10" d="M1691,465.297c-15.431,27.85-45.121,46.703-79.215,46.703
		c-49.981,0-90.5-40.519-90.5-90.5c0-49.982,40.519-90.5,90.5-90.5c33.672,0,63.049,18.39,78.636,45.674l-84.278,44.826
		L1691,465.297z"/>
	<line fill="#FFFFFF" stroke="#000000" stroke-miterlimit="10" x1="1606" y1="421.5" x2="1521" y2="421.5"/>
	<circle cx="1646.313" cy="360.857" r="10.478"/>
	<circle cx="1679.705" cy="369.749" r="5.086"/>
	<path d="M1646.979,338.38c0,0-22.194,1.62-22.194,31.62h-21.334c0,0,0.885-37.559,23.245-37.559
		C1626.696,332.441,1642.426,335.399,1646.979,338.38z"/>
</g>
</svg>
